<svg xmlns="http://www.w3.org/2000/svg" viewBox="0 0 809.8 762.57"><defs><style>.cls-1{fill:#da2c27;}</style></defs><g id="Layer_2" data-name="Layer 2"><g id="Layer_1-2" data-name="Layer 1"><path class="cls-1" d="M424.68,391.37c9.16,6.54,17.88,12.82,26.64,19Q569.13,494,687,577.58a9.65,9.65,0,0,1,4.49,6.9q4.6,31.38,9.6,62.72c1.63,10.16,1.54,10.42-8.8,10.6-24.54.44-49.08.86-73.61,1.4a12.89,12.89,0,0,1-9.2-3.17q-89.87-75-179.88-149.72c-8.71-7.25-17.38-14.56-26.12-21.78-1.21-1-2.34-2.37-4.69-2.61.62,2.93,2.37,4.74,3.65,6.78q59.05,94.13,118.16,188.21c2,3.2,2.14,5.79.93,9.41-7.3,21.79-14.27,43.7-21.27,65.59-1.85,5.78-2,5.9-7.64,3.59-25.64-10.49-51.26-21-77-31.28a10.31,10.31,0,0,1-6-5.65q-18.56-39.45-37.17-78.9L321.63,531.9c-5.12-10.85-9.75-21.94-15.85-32.31-1.7-2.9-.07-4.17,2-5.76,10.77-8.33,19.32-18.44,24.19-31.32,10.25-27.07,4.8-51.18-14.22-72.44-11.05-12.36-25.27-19.64-41.16-23.67-2.71-.69-4-1.66-4.6-4.36-3.92-17-8.46-33.8-13.51-50.47-17.66-58.36-41.11-113.81-80.94-161-6.67-7.92-14.07-15.12-21.38-22.43-3.46-3.46-3.36-4,1.47-5.69,14.4-4.86,28.82-9.66,43.21-14.55q58.77-20,117.53-40c43-14.59,86.13-29,129.15-43.66C470.34,16.43,493.09,8.4,515.88.48c4.44-1.54,8.25,1,12.19,2.11,18.22,5.14,36.34,10.61,54.54,15.79,2.77.79,3.13,2,2.19,4.36q-9.84,25-19.58,50c-1,2.49-2.83,3.63-5.29,4.2Q515,87.4,470,97.88c-27.32,6.41-54.6,13-81.91,19.45-12.5,3-25,5.82-37.56,8.68-1.93.44-4,.53-5.47,3.07,18.44-1.36,36.41-2.67,54.39-4,17.53-1.32,35.06-2.72,52.59-4q50.58-3.77,101.15-7.47c35.57-2.67,71.17-5.06,106.68-8.4,8.59-.8,14.55,3.2,21.18,6.56,18.39,9.32,36.64,18.9,55,28.2,3,1.5,3.34,2.58,1.3,5.21q-21.3,27.45-42.39,55.05c-1.71,2.23-3.77,2.92-6.56,2.89-26.25-.32-52.51,0-78.73-.92-19.64-.71-39.26-.31-58.89-.71-29.3-.59-58.63.21-87.92-.65-21.48-.64-43,.39-64.45-1.22-1.74-.13-3.62-.58-6,.87,9.46,2.62,18.59,3.45,27.6,4.83,20.89,3.18,41.82,6.15,62.73,9.22q31.62,4.63,63.24,9.31c20.73,3.09,41.45,6.33,62.19,9.41,20.24,3,40.5,5.87,60.74,8.86,21.08,3.11,42.08,6.89,63.24,9.2,9.92,1.09,17.37,5.42,24.79,11.22,16.65,13,33.52,25.75,50.36,38.51,2.4,1.82,3.8,3,.58,5.57-17.7,14.16-35.56,28.15-52.73,42.94-6.21,5.35-12,5.65-19.29,4.14q-49.18-10.2-98.5-19.82c-36.17-7.12-72.4-14-108.58-21.08-29-5.7-58-11.59-87.06-17.37-3.27-.65-6.58-1.14-10.64-1.83,5,4.25,10.66,5,15.8,6.79Q512.55,323,578.3,345.29c36.61,12.46,73.26,24.79,109.86,37.26,22.87,7.8,45.65,15.82,68.53,23.56a10.45,10.45,0,0,1,5.74,4.54c13,20,25.94,40,39.13,59.88,2.42,3.63,1.82,4.9-2,6.42Q764.26,491,729.1,505.45a6,6,0,0,1-4.83-.07q-63.76-24.7-127.57-49.33-72.56-27.93-145.18-55.75c-7.73-3-15.4-6.09-23.1-9.15A3.34,3.34,0,0,0,424.68,391.37Z"/><path class="cls-1" d="M200.79,700.33c-6.84-13.11-13.06-25.25-19.48-37.27C175,651.31,170,638.8,159.75,629.55c-17.63-15.93-38.42-24.35-62-25.52-15.19-.75-30.43-.09-45.6-1.89A84.69,84.69,0,0,1,33,597.82c-14.62-5.32-19.82-20.08-11.75-33.39A33,33,0,0,1,24.88,559c7.19-7.76,5.23-15.67.76-23.78a109,109,0,0,1-7.87-16.41c-1.64-4.67-.28-7.81,3.35-10,5-2.94,6.68-6.75,6.42-12.53-.49-10.48-.3-21-.06-31.5.1-4.39-.82-7.17-5.76-7.62a38,38,0,0,1-7.36-1.93c-13-4-16.2-12.72-13.44-27C7,396.78,21.06,368.45,33.57,339.49c1.77-4.11,1.76-7-1.95-9.64-7.28-5.13-8-11.76-6.07-20.12,4.39-18.52,12-35.85,18.37-53.67,1-2.83,1-4.59-1.74-6.38-4.11-2.66-7.85-5.87-11.86-8.67-2.32-1.62-2.59-3.32-1-5.53,2.34-3.32,4.89-6.51,6.91-10s3.76-2.78,6.32-.6a573.69,573.69,0,0,1,53.51,52c33.64,37.11,62.39,77.76,88.07,120.68,1.45,2.42,2,4.34.48,7-18.92,34.06-5.77,73.57,27,93.64.43.26.9.46,1.34.72,9.42,5.47,9.25,5.43,6.31,16-8.78,31.6-17.41,63.23-26.11,94.85a32.89,32.89,0,0,1-1.67,5.32c-6,13-2.58,25.68.56,38.53,3.33,13.64,6.23,27.39,9.3,41.1A7.41,7.41,0,0,1,200.79,700.33Z"/><path class="cls-1" d="M274.26,762.49c-8.13,0-16.26-.07-24.39,0-2.42,0-3.45-.57-4-3.17C240,732.6,234,705.87,228,679.12c-2.94-13.22-5.31-26.58-8.89-39.62-1.76-6.41-.51-12,1.1-17.82C230.07,586,240,550.33,249.75,514.61c.91-3.33,2.28-4.42,5.53-4.23a68.05,68.05,0,0,0,25-3.14c2.63-.86,3.64.16,4.42,2.52q18.43,55.79,37,111.55a26.33,26.33,0,0,0,1.62,4.26c5.5,10.12,1.54,20.18-.36,30.13-6.54,34.23-13.36,68.4-20,102.61-.57,3-1.55,4.35-4.85,4.26C290.19,762.34,282.22,762.49,274.26,762.49Z"/><path class="cls-1" d="M241.85,362.58c.24,2.27-.64,3.12-2.5,3.4-10.36,1.54-19.78,5.63-28.56,11.17-2.91,1.83-4.26,1.29-6-1.54a765.79,765.79,0,0,0-85.14-115.92A648.79,648.79,0,0,0,58.83,200c-4.82-4.14-4.71-4.16-.27-8.94,19.06-20.51,41.69-36.41,65.4-51,2.66-1.62,4-1,6,.88,20.27,19,37,40.84,51.13,64.66C202.73,242,218.16,281,230.17,321.5c3.89,13.12,7.46,26.34,11.18,39.51C241.54,361.66,241.76,362.29,241.85,362.58Z"/><path class="cls-1" d="M295.7,408A53.84,53.84,0,0,0,231,397.11c-25.27,13.19-33.3,44.07-17,65.45a53.29,53.29,0,0,0,64.67,15.92c17.56-8.2,27.45-21.82,28.52-37.9C307.19,426.59,302.83,415.6,295.7,408Zm-16.77,37C275,454.4,262.68,461,252.62,459c-12.36-2.4-20.51-11.24-20.46-22.18.05-12,12-22.4,25.14-21.81C273.81,415.74,284.77,431,278.93,445Z"/></g></g></svg>